<svg id="Capa_1" xmlns="http://www.w3.org/2000/svg" viewBox="-405 283 29.3 29.3"><style>.st0{fill:#FFF}</style><path class="st0" d="M-377.9 283h-24.9c-1.2 0-2.2 1-2.2 2.2v20.7c0 1.2 1 2.2 2.2 2.2h13.5l5.1 3.8c.4.3.8.5 1.3.5.8 0 1.6-.6 1.6-1.9V308h3.5c1.2 0 2.2-1 2.2-2.2v-20.7c-.2-1.1-1.1-2.1-2.3-2.1zm.1 22.8c0 .1-.1.2-.2.2h-5.5v4l-5.3-4H-403c-.1 0-.2-.1-.2-.2v-20.7c0-.1.1-.2.2-.2h24.9c.1 0 .2.1.2.2v20.7z"/><path class="st0" d="M-384.4 290.9l-3.5 1.2c0-1.7-1.2-2.9-2.8-2.9-1.8 0-2.6.7-2.6 2.2 0 1 .5 1.6 2.4 2.7 2.6 1.6 2.6 2.2 2.6 3.7v.2h-3c-.1-.8-.2-.9-1.7-1.9-1.6-1.1-2.5-1.8-2.7-2-.8-.8-1.2-1.8-1.2-3 0-2.8 2.4-4.5 6-4.5 3.4 0 5.3 1.1 6.5 4.3zm-3.7 12.8h-3.7v-3.5h3.7v3.5z"/></svg>