<svg id="Layer_1" xmlns="http://www.w3.org/2000/svg" viewBox="-377 270.5 86.5 55.8"><style>.st0{fill:#fffdfd}</style><g id="XMLID_34_"><path id="XMLID_38_" class="st0" d="M-290.6 300.8c-.1-.1-.4-.1-.9-.1l-9.7.4c-.1-2.3-.4-5.6-.7-10.1-.6-8-.9-12-.9-12.2 0-.3.1-.4.2-.2 1.1 1.3 1.7 1.6 1.7 1 0-.2-.1-.5-.2-.8-.1-.5-.6-1.8-1.4-3.9-.8-2-1.3-3.3-1.5-3.7-.1-.2-.2-.3-.3-.3-.1 0-.1.1-.2.3-.7 1.7-1.1 2.8-1.1 3.3.4.8.6 1.9.6 3.1 0 1.1.3 6.2 1 15.4.2 3.2.4 5.9.6 8.2l-7.8.3c.8-1 1.6-2.1 2.1-3.4.8-2.2.5-2 .5-5.2 0-1.3-.2-2.5-.6-7.7-.4-5.1-.5-6.7-.5-6.7 0-.3.1-.4.2-.2 1.1 1.3 1.7 1.6 1.7 1.1 0-.2 0-.5-.1-.8-.2-.5-.6-1.8-1.4-3.9-.8-2-1.3-3.2-1.5-3.7-.2-.4-.3-.5-.4-.5-.1 0-.2.1-.2.3-.7 1.7-1.1 2.8-1.1 3.3.4.8.6 1.9.6 3.1 0 1.1.2 2.7.7 8.9.4 6.2.7 7.3.7 8.5 0 2.8 0 2.9-.1 3.2-.1.5-.5.8-1.2 1.1-1.5.6-3.3 1.2-5.6 1.8-1.7.5-2.5.8-2.7.9-.7 1.4-1.2 2.5-1.5 3.4-.2.4.1.6.7.6l16.9-.5c-4.8 1.4-8.7 2.8-11.9 4.1-3.2 1.4-5.5 2.4-6.8 3.1-2.2 1.2-4 2.6-5.4 4.1-1.1 1.3-2.1 2.5-3.2 3.8-1.7 1.6-3.3 2.5-4.9 2.5-.9 0-1.6-.3-2.2-1-.5-.6-.7-1.5-.7-2.5 0-1.4.4-3.2 1.3-5.5s1.3-3.7 1.3-4.1c0-.1 0-.1-.1-.2-.1 0-.3.2-.5.6-2 3.9-3 7.1-3 9.5 0 1.8.5 3.3 1.5 4.5 1 1.2 2.1 1.8 3.4 1.8 1.6 0 3.1-.9 4.6-2.7 2.6-3 4.6-5 5.9-6.1.7-.6 2.1-1.3 4.1-2.3 1-.5 2.5-1.1 4.4-2 2.7-1.1 6.6-2.6 11.7-4.4.4-.2.8-.3 1.3-.4v.6c0 1.4-.1 2.6-.2 3.7-.1.8-.1 1.3-.1 1.5 0 .2.2.2.3-.1l.5-1c.6-1.6 1-3.4 1.2-5.3 3.8-1.3 6.7-2.3 8.7-2.8.6-.2 1-.4 1-.6l.9-2.7c.5-.1.4-.3.3-.4z"/><path id="XMLID_39_" class="st0" d="M-337.7 300c.1-.2.2-.3.3-.4.1.1.1.2.1.4.5 2.1 1.6 3.2 3.6 3.2 2.1 0 3.7-1.5 4.8-4.4.1-.3.3-.3.4 0 .9 2.5 2.3 3.8 4.3 3.8 1.5 0 2.7-.9 3.6-2.7.7-1.4 1-2.7 1-4.1 0-1.5-.6-4-1.8-7.4-.5-1.5-.9-2.7-1.1-3.5 0-.1.1-.1.2-.1.7.4 1.2.7 1.4.7.1 0 .2-.1.2-.2 0-.2-.1-.5-.4-1-.7-1.1-1.6-2.4-2.6-3.9-.2-.3-.4-.5-.5-.5-.1 0-.2.2-.4.5-.4 1.1-.7 1.9-.9 2.6.3.4.4.7.5 1.1 0 .2.1.6.2 1.3.2 1.8.7 3.7 1.4 5.7.3 1 .9 2.3 1.7 3.8.6 1.2.9 2 .9 2.4-.4 1.1-1.6 1.6-3.4 1.6-.8 0-1.5-.3-2.1-.8-.6-.6-.8-1.3-.8-2.2v-.5-.5c0-.3-.1-.4-.3-.4-.2 0-.4.2-.6.5-1.5 3.1-3.4 4.7-5.6 4.7-1.6 0-2.4-.6-2.4-1.9 0-.3.1-.7.4-1.2 0-.1.1-.2.1-.3 0-.3-.1-.4-.3-.4-.2 0-.3.1-.4.2-.8 1.1-1.8 2.1-2.9 3.1-.9.7-2 1.1-3.2 1.1-1.4 0-2.5-.5-3.3-1.4-.1-.1-.6-1-1.6-2.7-.6-.9-1.2-1.4-2-1.4-.9 0-2.2.6-3.7 1.8-1.7 1.3-3.1 2.8-4.2 4.5-.7 1-1.2 2.4-1.5 4.2-.4.4-.4 1.1-.4 1.9 0 1.2.6 2.2 1.7 2.9.7.4 1.9.9 3.6 1.2 1.3.3 2.6.6 4 .9 1.2.3 1.9.7 1.9 1.1 0 .3-1.1 1.2-3.3 2.6-2.5 1.6-5 2.9-7.6 3.9-3.3 1.4-6.2 2.1-8.5 2.1-3 0-5.2-1-6.6-2.9-1.1-1.5-1.7-3.2-1.7-5.3 0-2.4.8-5.3 2.5-8.8.2-.5.4-.9.4-1.1 0-.1 0-.1-.1-.2-.2 0-.4.3-.9 1-2.3 3.2-3.4 7.1-3.4 11.5 0 2.7.7 5 2 6.6 1.6 2.1 3.9 3.1 7 3.1 2.8 0 6.3-.9 10.2-2.8 3.7-1.7 6.9-3.7 9.3-6 1.5-1.4 2.3-3.1 2.3-5.1 0-1.2-.4-2.1-1.1-2.7-.7-.6-2.2-1.1-4.5-1.5-3.9-.8-5.9-1.8-6-2.8 0-.9 1-2.2 3.1-3.9 2-1.7 3.6-2.6 4.6-2.6.4 0 .9.5 1.4 1.4.8 1.3 1.4 2.1 1.9 2.6 1 .9 2.2 1.4 3.7 1.4 1.2 0 2.4-.5 3.6-1.6.8-.7 1.3-1.4 1.8-2.2z"/><path id="XMLID_40_" class="st0" d="M-345.3 321.9c-1-.7-1.6-1-1.7-1s-.2.1-.3.2l-1 2.1c-.3-.3-.8-.7-1.7-1.2-.8-.6-1.3-.9-1.4-.9s-.2.1-.3.2l-1.3 2.6c-.1.1-.1.2 0 .2 1.1.7 2.1 1.4 3.1 2.1.1.1.2 0 .3-.1.4-.6.7-1.3 1.1-2.1 1.1.7 2.1 1.4 2.9 2 .1.1.2 0 .3-.1.9-1.4 1.3-2.4 1.3-2.8.2-.1-.3-.5-1.3-1.2z"/><path id="XMLID_41_" class="st0" d="M-310 318.4c-1-.7-1.6-1-1.7-1-.1 0-.2.1-.3.2l-1.3 2.6c-.1.1-.1.2 0 .2 1.1.7 2.1 1.4 3.1 2.1.1.1.2 0 .3-.1.9-1.4 1.3-2.4 1.3-2.8.1-.1-.4-.5-1.4-1.2z"/><path id="XMLID_42_" class="st0" d="M-325.3 305.6c-.1 0-.2.1-.3.2l-1 2.1c-.3-.3-.8-.7-1.7-1.2-.8-.6-1.3-.9-1.4-.9-.1 0-.2.1-.3.2l-1.3 2.6c-.1.1-.1.2 0 .2 1.1.7 2.1 1.4 3.1 2.1.1.1.2 0 .3-.1.4-.6.7-1.3 1.1-2.1 1.1.7 2.1 1.4 2.9 2 .1.1.2 0 .3-.1.9-1.4 1.3-2.4 1.3-2.8 0-.1-.5-.5-1.5-1.2-.8-.7-1.3-1-1.5-1z"/><path id="XMLID_43_" class="st0" d="M-318.4 321.5c-.3.7-.8 1-1.4 1.2-.2.1-.3 0-.4-.1-.1-.1-.2-.3-.2-.4-.1-.2-.1-.3-.1-.5-.2-.6-.1-1.1.1-1.6.3-.6.5-1.3.7-1.9 0-.1.1-.3.1-.4 0-.1 0-.1-.1-.1-.1.2-.3.5-.4.8-.3.6-.5 1.3-.7 1.9-.2.5-.4 1-.4 1.5-.1.9.2 1.7.6 2.4.2.3.4.3.7.1.5-.3 1-.7 1.3-1.2.1-.3.2-.5.3-.8.1-.3.2-.6.2-1.1-.2.2-.2.2-.3.2z"/><path id="XMLID_44_" class="st0" d="M-353.7 288.3l1.5-.3c.3-.1.6-.1.9-.1.7-.2 1.5-.3 2.2-.6 1-.3 2-.7 2.9-1.3.4-.2.7-.4 1.1-.7.5-.3 1.1-.6 1.5-1 .1-.1.2-.1.2-.2.4-.2.8-.5 1.1-.7.3-.2.6-.4 1-.6.9-.5 1.7-.9 2.7-1.2.2-.1.5-.1.7-.1.7.1 1.3.2 1.9.5.2.1.5.3.8.4.5.2 1 .2 1.5-.1.5-.3 1-.8 1.2-1.4 0-.1.1-.1.1-.2.1.1.2.1.2.1.3.3.7.4 1 .6.5.2.9.2 1.2-.2.1-.1.3-.3.3-.5.1-.6.3-1.2.4-1.8.1-.5 0-1-.2-1.5 0-.1-.1-.2-.1-.3s-.1-.1-.1-.2l-.3 1.2c-.1.3-.1.6.1.9.1.1.1.3.2.4-.1.2-.2.4-.3.4h-.5c-.5-.2-.9-.4-1.3-.7-.1-.1-.2-.2-.1-.3.1-.4.1-.4 0-.7-.1.2-.1.3-.1.3-.1.3-.2.7-.3 1-.1.3-.2.6-.5.8-.2.2-.5.4-.8.6-.3.2-.6.3-1 .1-.2-.1-.4-.1-.6-.2-.6-.4-1.3-.6-2-.7h-.8c-.4.1-.9.2-1.3.4-1.1.4-2.2 1.1-3.1 1.8-.7.5-1.4 1.1-2.1 1.6-.7.5-1.3.9-2 1.3-.9.6-1.9 1.1-3 1.5-1 .4-2 .8-3 1.1-.5.2-1 .3-1.6.5-.1 0-.1 0-.2.1h.6z"/><path id="XMLID_45_" class="st0" d="M-318.6 282.2c.2.3.5.5.8.7.3.2.7.2.9-.1.2-.3.5-.5.7-.8.7-1 .9-2.2 1.1-3.3v-.3c0-.1-.1-.1-.2-.2-.1.8-.5 1.5-1 2.1-.5.6-1.1.6-1.6 0-.1-.1-.2-.2-.2-.3-.3-.5-.4-.9-.6-1.4-.2-.5-.2-1-.1-1.5.1-.3.1-.5.2-.8.3-1.3.7-2.6 1-4 .1-.3 0-.5.1-.8l-.1-.1h-.1c-.2.7-.5 1.3-.6 2-.3.6-.5 1.4-.7 2.1-.3 1-.5 2.1-.7 3.1-.1.5 0 1.1.1 1.6.4.7.7 1.3 1 2z"/><path id="XMLID_46_" class="st0" d="M-369.5 279.4h.2c.3 0 .7 0 1 .1.8.2 1.5.7 1.9 1.4.6.9 1.2 1.7 1.8 2.6.4.6.7 1.2 1.1 1.7-.2.4-.3.7-.5 1-.1.3-.1.7-.2 1-.1.8-.1.8 0 1 0 0 .1 0 .1-.1.1-.1.1-.2.2-.4.1-.3.3-.6.5-.8.2-.2.4-.3.6-.2.5.2.8.5 1.1.9-.2.1-.4.1-.5.2-.6.2-1.2.4-1.8.7-.2.1-.4.3-.7.5-.2.1-.3.3-.3.6 0 .4-.1.8-.1 1.2 0 .1 0 .3.1.4.1.2.1.3.1.5s.1.3.1.5c.1.5.4.9.7 1.3.2.3.4.6.5.9.2.4.4.8.7 1.1.4.5.7 1.1 1 1.6.3.7.7 1.3.7 2.1 0 .5.1 1 .1 1.5 0 .2 0 .5.1.7 0 0 0 .1.1.1 0-.1.1-.1.1-.2.1-.3.2-.6.2-.9 0-1.1 0-2.1-.3-3.2-.3-1-.7-2-1.3-2.9-.3-.4-.6-.9-.8-1.3-.3-.6-.6-1.1-1-1.7-.1-.1-.1-.2-.1-.3-.1-.3-.1-.5.2-.7.1 0 .1-.1.2-.1 1-.5 2.1-.8 3.2-.8h.6c0-.1.1-.1.1-.1 0-.1.1-.2.1-.3.2-.7.2-1.4-.2-2-.1-.2-.2-.3-.3-.5-.4-.5-.8-1-1.2-1.4s-.9-.7-1.6-.5v-.6c0-.5.1-1 .1-1.5v-2.1c0-.8 0-1.5-.1-2.3 0-.5.1-.9.3-1.4.1-.3.3-.4.6-.4.2 0 .4 0 .6.2.1.6.4.8.5 1 .2.4.4.8.6 1.3 0 .1 0 .2.2.2 0-.1.1-.1.1-.2.1-.2.1-.5.2-.6.2-.4.2-.8.1-1.1-.2-.7-.6-1.4-1.2-1.9-.1-.1-.3-.2-.5-.3-.5-.2-1 0-1.2.5-.2.4-.3.7-.4 1.1-.3 1.3-.4 2.7-.4 4 0 .7 0 1.3.1 2 0 .1 0 .2-.1.4l-1.5-2.4c-.7-1.1-1.4-2.1-2.4-3-.4-.4-.9-.7-1.3-1.2-.2-.2-.4-.3-.7-.5-.3.4-.4.7-.5 1.1 0 .5-.1 1.1-.1 1.6v.5c.1.3.2.4.5.4z"/></g></svg>