<svg id="Layer_1" xmlns="http://www.w3.org/2000/svg" viewBox="0 0 1346.2 269.3"><style>.st0{fill-rule:evenodd;clip-rule:evenodd;fill:#FFF}</style><g id="XMLID_14_"><path id="XMLID_45_" class="st0" d="M1345.9 138.8c-.4-.4-1.7-.2-3.7.7-1 .4-12.6 5.5-34.9 15.3-11.5 5.1-19.1 7.6-22.6 7.6-11.8 0-22.9-5.5-33.4-16.5-8.9-9.4-14-18.3-15.1-26.6.9-3.2 6.5-6.3 16.7-9.3 10.7-3.2 21.9-4.8 33.5-4.8 8.3 0 15.7.9 22.1 2.8 2.2.6 3.5 1 4.2 1 .3 0 .5-.1.6-.4 0-.5-1.6-2-4.8-4.6-3.9-3-8.9-5.8-15.2-8.2-7.9-3.1-15.7-4.7-23.2-4.7-12 0-22.3 3.9-30.9 11.8-7.4 6.7-11.1 15.4-11.1 26.1 0 10.5 3.4 20.3 10.3 29.3 5.4 7.1 11.9 12.7 19.6 16.8-9.3 4.4-20.5 6.6-33.6 6.6-3.7-.2-6.5-1.8-8.4-4.9-1.6-2.6-2.5-5.7-2.5-9.3 0-.7.1-1.7.4-2.9.3-1.2.4-2.1.4-2.7 0-1.2-.6-1.8-1.8-1.8-1.1 0-2.3.5-3.3 1.6-9.8 9.8-16.1 15.7-18.9 17.6-7 4.9-15.1 7.4-24.4 7.4-4.7 0-8.1-.7-10.3-2.1-4.3-2.8-7.2-8.6-8.7-17.5-3.5-20.7-6.5-36.9-8.8-48.4-5.3-25.9-13.5-46.3-24.6-61-1.2-1.5-2.1-1.1-2.7 1.1-.5 2-1.1 5.1-1.7 9.3-.8 4.6-1 7.2-.8 7.7 9.4 20.5 15.4 35.8 18 45.7 3.3 12.9 4.9 22.3 4.9 28.2 0 2.6-.3 4.6-1 5.9-.1.1-1.2 1.7-3.4 4.7-7.2 9.7-17.1 18.9-29.9 27.6-8.2 5.6-16.1 9.8-23.7 12.7 4.4-11.1 6.6-24 6.6-38.6 0-4.8-1.4-26.4-4.2-64.9-2.8-38.4-4.2-57.9-4.2-58.5 0-1.6.3-2 1-1.1 5.4 6.2 8.1 7.8 8.1 5 0-.9-.3-2.2-.8-4-.6-2.3-2.9-8.6-6.7-18.7-3.7-9.8-6-15.7-7-17.9-.5-1.1-1-1.6-1.3-1.6-.3 0-.7.5-1.1 1.5-3.5 8.3-5.3 13.6-5.3 15.8 1.9 3.9 2.9 8.9 2.9 15 0 5.3 1.6 29.9 4.7 73.9 3.1 44 4.7 69 4.7 75.1 0 6.7-.3 12.6-.9 17.7-.1.9-.2 1.8-.3 2.6-6.3 1.9-12.3 2.9-18.2 2.9-10 0-15-5.2-15-15.5v-1.7c1.8-3.1 3.5-6.5 4.9-10.3 3.7-9.6 5.5-19.7 5.5-30.1 0-6.3-1.2-26-3.6-59-2.4-33-3.6-49.6-3.6-50 0-1.6.3-2 1-1.1 5.3 6.1 8 7.7 8 4.9 0-.8-.2-2.1-.6-4-.8-2.3-3-8.5-6.8-18.6-3.7-9.8-6-15.7-7-17.9-.5-1.1-1-1.7-1.3-1.7-.4 0-.8.5-1.1 1.5-3.5 8.4-5.3 13.6-5.3 15.8 1.9 3.9 2.9 8.9 2.9 15 0 6.7 1.4 28.8 4.1 66.3 2.7 37.5 4.1 58.9 4.1 64.2 0 .7 0 1.4-.1 2-1 3-1.9 6-2.6 9-3 5.4-8.3 9.8-16.1 13.1-15.4 6.5-26.2 11.4-32.4 14.8-10.7 5.8-19.4 12.5-25.9 19.9-5.1 6-10.1 12-15.2 18.1-8 7.9-15.9 11.9-23.7 11.9-4.4 0-7.9-1.6-10.4-4.9-2.3-3-3.5-7-3.5-12 0-6.5 2.1-15.4 6.3-26.7 4.2-11.3 6.3-17.8 6.3-19.7 0-.4-.1-.7-.4-.8-.6 0-1.4 1-2.4 2.9-9.6 18.8-14.4 34.1-14.4 45.8 0 8.5 2.5 15.7 7.4 21.6 4.7 5.6 10.2 8.5 16.4 8.5 7.5 0 14.9-4.3 22.3-12.8 12.4-14.3 21.9-24 28.4-29.1 3.5-2.8 10.1-6.4 19.6-10.8 4.8-2.3 12.1-5.5 21.9-9.7 4.9-2.1 9.2-5.4 12.9-9.6 0 1.3-.1 2.5-.1 3.7 0 6.8 1.4 12.5 4.3 17 3.4 5.5 8.5 8.3 15.1 8.3 12.7 0 26.6-4.9 41.9-14.6 13.2-8.4 24.5-18.4 33.8-30 4.7-5.8 7.8-13.2 9.4-22.3 1.7 11.3 2.9 18.9 3.6 22.7 1.9 10.8 5.5 18.3 10.9 22.3 3.7 2.8 9 4.2 15.8 4.2h.1c8.8 0 17.2-3.5 25.3-10.4 1.8-1.6 5.9-6.1 12.3-13.4 1-1.2 2-1.8 3-1.8.6 0 1 .3 1 1 .4 13.1 6.3 19.6 17.6 19.6v-.1c10.7-.2 24.3-3.9 41-11.4.8-.4 12.4-5.7 34.8-15.9 14.4-6.6 25.9-11.7 34.7-15.2 1.6-.6 2.7-1.6 3.3-2.9l6.3-12.9c.3-1.5.5-2.7 0-3.2z"/><path id="XMLID_67_" class="st0" d="M898.3 166.7c7.4-.1 17-2.6 28.9-7.5 11.2-4.7 22.3-9.4 33.4-14.1 13.7-5 26.1-7.5 37.2-7.5 3.5 0 7.5.3 12.1.9 4.6.6 7.6.9 9 .9 1.3 0 2.3-.6 2.9-1.7l6.7-12.2c.8-1.3.9-2.1.3-2.4-.3-.1-.8-.2-1.6-.2-1.6 0-8.1-1-19.7-2.9-12.4-2-21.6-3.7-27.9-5.1-6.2-1.4-17-4.7-32.5-9.8-14.3-4.7-21.5-7-21.8-7-10 0-18.7.6-26.1 1.7-1.4.2-2.5 1.1-3.4 2.9l-6.2 11.4c-.7 1.3-1 2.3-1 2.9 0 1 1 1.6 3.1 1.8 10.2.7 18.2 1.2 24 1.5 2 .2 3.4-.2 4.4-1.1 1.3-1.3 2.6-1.8 3.8-1.5l35.6 10.7c-16.9 6.8-27.9 11.2-33.1 12.9-12 4.2-21.6 6.3-28.6 6.4-5 0-8.9-.8-11.7-2.3-1.3-.6-3.8-2.5-7.6-5.5-1.1-.9-2.1-1.3-2.9-1.3-1.3 0-2.8 1.1-4.6 3.4-4.6 5.5-7.6 8.8-9.1 9.9-5.6 4.3-12.9 6.4-21.8 6.5-4.4 0-7.6-1.1-9.6-3.2-.9-.9-2.2-3.2-3.8-6.8-1-2-1.8-3-2.5-3-.5 0-1 .7-1.5 2.1-2.4 8.1-3.6 12.6-3.6 13.5 0 1.3.6 3 1.7 5.3 6 11.9 8.9 23.2 8.9 33.9-1.5 3.4-6.8 8.6-15.8 15.6-10.9 8.4-22.6 15.3-35 20.7-15.8 6.8-31 10.3-45.4 10.3-16.6 0-29.3-5.4-38-16.2-6.5-8.1-9.7-17-9.7-26.6 0-2.8.6-7.1 1.9-12.9.8-3.3 1.5-6.6 2.3-9.9.4-2.2.3-3.2-.4-3.2-.6 0-1.3.8-1.9 2.5-2 5.3-3.6 11.5-4.8 18.6-.8 4.8-1.1 9.6-1.1 14.3 0 7.1.9 12.9 2.7 17.5 9 23.3 25.4 35 49.2 35 16.6 0 34.4-4.9 53.4-14.8 14.8-7.9 27.5-16.9 38-27.2 3.8-3.9 6.5-9.6 8-17.1 1.5-6.7 2.3-16.6 2.3-29.7 1 .4 2.4.5 4.4.6H840.1c6.9-.1 13.2-2.7 18.6-7.8 3-3.8 6.1-7.5 9.1-11.2.9-1.3 1.5-1.9 1.9-1.9.3 0 .4.6.6 1.9.8 7.7 2 13.4 3.6 17.1 2.8 6.2 8 11.5 15.6 15.8 2.4 1.4 4.1 2.1 5.1 2.1.9 0 1.8-1 2.7-3 1.5-3.7 2.3-8 2.3-12.9.2-4.6-.3-8.2-1.3-11.1zm-12.9 4.4c-3-3.3-4.6-6.5-4.6-9.5 2.9.9 5.8 2.9 8.6 6s4.2 6 4.2 8.7c-2.5-.2-5.2-1.9-8.2-5.2z"/><path id="XMLID_68_" class="st0" d="M659.1 173.7c1 .4 2.6.6 4.8.6v-.1c5.3-.1 9.8-2.8 13.7-7.9 4.7-6.2 7-14.7 7-25.6 0-5.6-1.5-11.7-4.6-18.1-1-2.1-1.7-3.1-2.4-3.1-.6 0-1.1.8-1.5 2.3-2.5 8-3.7 12.5-3.7 13.4 0 1.7.6 3.5 1.7 5.3 2.5 4.1 3.8 7.2 3.8 9.3-2.3 3.5-7.2 5.3-14.5 5.3-4.2-.1-7.3-1.1-9.2-3.2-.9-.9-2.2-3.2-3.8-6.8-1-2-1.8-3-2.5-3-.5 0-1 .7-1.5 2.1-2.4 8.1-3.6 12.6-3.6 13.5 0 1.3.6 3 1.7 5.3 6 11.9 8.9 23.2 8.9 33.9-1.5 3.4-6.8 8.6-15.8 15.6-10.9 8.4-22.6 15.3-35 20.7-15.8 6.8-31 10.3-45.4 10.3-16.6 0-29.3-5.4-38-16.2-6.5-8.1-9.7-17-9.7-26.6 0-2.8.6-7.1 1.9-12.9.8-3.3 1.5-6.6 2.3-9.9.2-.9.2-1.6.2-2.1 11.6-.2 23.2-3.6 34.8-10.2 6.9-3.9 15.7-10.3 26.5-19.3 2.9-5.4 5-10.2 6.4-14.5.8-1.8.7-2.8-.3-2.8-.6.1-1.6.7-3 1.9-6.8 6-14.3 11.3-22.3 15.9-9.9 5.6-17.9 8.5-24 8.5-11.9 0-21.7-5.3-29.4-16-6.3-8.7-9.4-17.6-9.4-26.6 4.1-3.6 10.5-6.7 19.2-9.2 8.8-2.5 17.3-3.8 25.7-3.8 5.7 0 12.2 1.3 19.6 4 1.9.7 3.3 1 4.2 1 .7 0 1-.2 1-.6 0-.6-.9-1.6-2.8-3.1-11-9.2-23.4-13.8-37.4-13.8-10.5 0-19.3 3.1-26.4 9.3-8.3 7.3-12.5 17.7-12.5 31.3 0 7.4 2.7 15.1 8.2 23.1-3.1-2.1-6.1-4.5-9-7.3-5.9-5.8-9.8-18.1-11.7-37-1.4-19-2.8-37.9-4.2-56.9-1.2-11.3-2.7-21.1-4.6-29.5-.9-4-2-8.2-3.4-12.6-.4-1.4-.9-2.1-1.3-2.1s-.8.7-1.3 2c-.6 1.6-1.6 7.1-3.1 16.5 1.6 4.9 3.4 17.2 5.3 36.7 1.8 18.1 2.8 37.1 2.8 57 0 21.1-11.3 37.7-33.9 49.8-1.9 1-3.5 3.3-4.7 6.8h-.1c-1.1 4.4-1.9 7.7-2.3 9.7-.6 2.3.3 3.9 2.9 4.8 9.8 2.8 19.6 5.5 29.5 8.2 14.4 4.1 21.7 6.9 21.7 8.6 0 1.5-5.3 5.4-15.8 11.6-11.8 7.1-23.7 13.1-35.7 18.1-15.6 6.2-28.6 9.3-39.2 9.3-14.3 0-24.9-4.6-31.7-13.9-5.3-7-8-15.5-8-25.5 0-6.2 1.2-13.3 3.5-21.2l1.8-.6c2.1-.7 4.1-1.4 6.1-2.1 0 1.3.1 2.3.1 3 0 6.7-.3 12.6-.9 17.7-.4 3.7-.5 6.1-.3 7.2.2 1.1.7.9 1.6-.7.6-1 1.3-2.7 2.3-4.9 3.1-7.6 5.1-16.1 6-25.4 18.4-6.3 32.4-10.8 41.9-13.3 3-.8 4.7-1.7 5-2.9l4.5-13.1c.3-1 .2-1.8-.5-2.2-.6-.5-2.1-.6-4.4-.5l-46.7 2c-.7-11-1.8-27.1-3.3-48.4-2.8-38.4-4.2-57.9-4.2-58.5 0-1.6.3-2 1-1.1 5.4 6.2 8.1 7.8 8.1 5 0-.9-.3-2.2-.8-4-.6-2.3-2.9-8.6-6.7-18.7-3.7-9.8-6-15.7-7-17.9-.5-1.1-1-1.6-1.3-1.6-.3 0-.7.5-1.1 1.5-3.5 8.3-5.3 13.6-5.3 15.8 1.9 3.9 2.9 8.9 2.9 15 0 5.3 1.6 29.9 4.7 73.9 1.1 15.5 2 28.6 2.7 39.4l-37.2 1.6c4-4.9 7.9-9.9 10.1-16.3 3.7-10.8 2.3-9.5 2.3-25 0-6.3-.9-12-2.8-36.8-1.8-24.9-2.8-32.5-2.8-32.9 0-1.6.3-2 1-1.1 5.3 6.2 8 7.9 8 5.1 0-.9-.2-2.2-.6-4-.8-2.4-3-8.7-6.8-18.8-3.7-9.6-6-15.6-7-17.9-.5-1-1-1.5-1.3-1.5-.4 0-.8.5-1.1 1.5-3.5 8.2-5.3 13.5-5.3 15.8 1.9 3.9 2.9 8.9 2.9 15 0 5.3 1.1 13 3.2 42.8 2.2 29.9 3.2 35.1 3.2 40.7 0 13.7-.2 13.8-.6 15.2-.4 2.3-2.3 4.1-5.7 5.3-7 2.8-15.9 5.7-26.8 8.7-8 2.2-12.2 3.7-12.9 4.5-3.2 6.7-5.6 12.2-7 16.4-.8 1.8.4 2.7 3.4 2.7l79.8-2.2c-.1.2-.2.3-.3.5-22.1 6.6-40.6 13.1-55.4 19.4v-.1c-15.5 6.5-26.4 11.5-32.7 14.9-10.7 5.8-19.4 12.5-26 19.9-5.1 6-10.1 12-15.2 18.1-8 7.9-15.9 11.9-23.7 11.9-4.4 0-7.9-1.6-10.4-4.9-2.3-3-3.5-7-3.5-12 0-6.5 2.1-15.4 6.3-26.7 4.2-11.3 6.3-17.8 6.3-19.7 0-.4-.1-.7-.4-.8-.6 0-1.4 1-2.4 2.9-9.6 18.8-14.4 34.1-14.4 45.8 0 8.5 2.5 15.7 7.4 21.6 4.7 5.6 10.2 8.5 16.4 8.5 7.5 0 14.9-4.3 22.3-12.8 12.4-14.3 21.9-24 28.4-29.1 3.5-2.8 10.1-6.4 19.6-10.8 4.7-2.2 11.8-5.4 21.2-9.4 11.6-4.9 27.8-11.1 48.7-18.5-2.7 9.5-4.1 19.8-4.1 30.8 0 13.2 3.2 23.8 9.5 32 7.5 9.9 18.7 14.8 33.6 14.8 10.9 0 26-4.4 45.4-13.1 18.5-8.4 32.3-16.7 41.4-24.9 4.6-4.2 8.3-9.3 11.2-15.4 2.4-5.2 3.6-9.6 3.6-13.1 0-5.1-2.7-9.1-8.2-12-4.5-2.4-15.1-5.9-31.7-10.6 5.5-5.9 9.2-10.1 10.9-12.8 5.8-9.1 9.3-20.2 10.5-33.2 1.1 9.5 2.6 16.2 4.4 20 3.2 6.8 7.6 12.4 13.2 16.5 3.8 2.9 9.5 5.8 17 8.9 3 1.2 7.4 1.8 13.2 1.9-.2.4-.4.8-.6 1.4-2 5.3-3.6 11.5-4.8 18.6-.8 4.8-1.1 9.6-1.1 14.3 0 7.1.9 12.9 2.7 17.5 9 23.3 25.4 35 49.2 35 16.6 0 34.4-4.9 53.4-14.8 14.8-7.9 27.5-16.9 38-27.2 3.8-3.9 6.5-9.6 8-17.1 1.6-6.9 2.3-16.8 2.3-29.9z"/><path id="XMLID_69_" class="st0" d="M188.8 142.9c.6-1 1-1.6 1.2-1.7.3.6.4 1.1.6 1.7 2.2 10.3 7.9 15.4 17.1 15.4 9.9 0 17.6-7 23.1-21 .6-1.6 1.2-1.6 1.7 0 4.1 12.1 11 18.2 20.5 18.2v-.1c7.3-.1 13-4.5 17.3-13.1 3.2-6.6 4.8-13.1 4.8-19.6 0-7.4-2.9-19.2-8.6-35.5-2.5-7.2-4.4-12.9-5.5-17 .2-.4.4-.7.8-.7 3.3 2.1 5.6 3.1 6.8 3.1.6 0 1-.3 1-1 0-1-.7-2.6-2.1-4.9-3.4-5.5-7.6-11.8-12.6-18.7-1.1-1.5-1.9-2.3-2.4-2.3s-1.1.8-1.7 2.3c-1.9 5.3-3.3 9.4-4.2 12.3 1.3 1.7 2.1 3.5 2.6 5.2.2.8.5 2.8 1 6.1 1.1 8.5 3.3 17.6 6.6 27.4 1.6 4.8 4.3 10.8 8.1 18.3 3 5.8 4.5 9.6 4.5 11.4-2.2 5.1-7.7 7.7-16.5 7.7-4-.1-7.4-1.4-10-4.1-2.7-2.7-4-6.3-4-10.7 0-.6.1-1.4.2-2.6.2-1.1.2-2 .2-2.5 0-1.4-.4-2.1-1.2-2.1-1 0-1.9.8-2.7 2.3-7.4 15-16.3 22.4-26.7 22.4-7.6 0-11.4-3-11.4-9.1 0-1.4.6-3.3 1.7-5.8.2-.5.3-1 .3-1.3 0-1.3-.5-1.9-1.6-1.9-.8 0-1.4.4-1.9 1.1-3.7 5.3-8.4 10.2-14.1 14.7-4.4 3.6-9.6 5.3-15.6 5.3-6.5 0-11.8-2.3-15.8-6.8-.4-.5-3-4.8-7.8-12.7-2.7-4.6-5.9-6.8-9.4-6.8-4.5 0-10.5 2.8-18 8.5-8 6.1-14.7 13.3-20.2 21.8-3.1 4.8-5.6 11.5-7.4 20.1V166.5c-.7 3.5-1.1 7-1.1 10.7 0 5.8 2.7 10.5 8 13.9 3.5 2.2 9.3 4.1 17.3 5.9 6.3 1.5 12.7 3 19.2 4.6 6 1.6 8.9 3.4 8.9 5.1 0 1.6-5.3 5.8-16 12.4-11.9 7.5-24.1 13.8-36.7 18.8-16.1 6.6-29.8 9.9-41.1 9.9-14.3 0-24.9-4.6-31.7-13.9-5.3-7-8-15.5-8-25.5 0-11.4 3.9-25.6 11.8-42.4 1.1-2.5 1.7-4.3 1.7-5.3 0-.4-.1-.6-.4-.8-.8 0-2.2 1.6-4.2 4.8C5.1 180.4 0 198.9 0 220.1c0 13.2 3.2 23.8 9.5 32 7.5 9.9 18.7 14.8 33.6 14.8 13.7 0 30.1-4.5 49.2-13.5 18-8.2 33-17.8 44.9-28.7 7.3-6.7 11-14.8 11-24.3 0-6-1.7-10.3-5.1-12.9-3.4-2.7-10.6-5.1-21.5-7.4-18.8-4-28.3-8.4-28.7-13.4 0-4.2 4.9-10.6 14.8-19s17.2-12.6 21.9-12.6c1.8 0 4.1 2.3 6.8 6.8 3.7 6.1 6.7 10.3 9.2 12.6 4.8 4.5 10.7 6.8 17.6 6.8 5.9 0 11.6-2.6 17.2-7.9 3.5-3.4 6.3-6.8 8.4-10.5z"/><path id="XMLID_70_" class="st0" d="M1179.6 232.3c-4.8-3.3-7.5-4.9-8.2-4.9-.4 0-.9.4-1.2 1.1l-6.1 12.5c-.3.6-.3 1 0 1.1 5.1 3.2 10 6.6 14.7 10.2.6.4 1.1.2 1.6-.7 4.2-6.8 6.4-11.4 6.4-13.5 0-.6-2.4-2.5-7.2-5.8z"/><path id="XMLID_71_" class="st0" d="M152.5 248.1c-4.8-3.3-7.5-4.9-8.2-4.9-.4 0-.9.4-1.2 1.1l-4.8 10c-1.3-1.3-3.9-3.3-8-6s-6.4-4.1-6.9-4.1c-.4 0-.9.4-1.2 1.1l-6.1 12.5c-.3.6-.3 1 0 1.1 5.1 3.2 10 6.6 14.7 10.2.6.4 1.1.2 1.6-.7 1.7-2.8 3.5-6.2 5.2-10.2 5.3 3.4 10 6.7 14.2 9.8.6.4 1.1.2 1.6-.7 4.2-6.8 6.4-11.3 6.4-13.5-.1-.5-2.5-2.4-7.3-5.7z"/><path id="XMLID_72_" class="st0" d="M746.3 171.6l-6.1 12.5c-.3.6-.3 1 0 1.1 5.1 3.2 10 6.6 14.7 10.2.6.4 1.1.2 1.6-.7 4.2-6.8 6.4-11.4 6.4-13.5 0-.6-2.4-2.5-7.2-5.8-4.8-3.3-7.5-4.9-8.2-4.9-.4 0-.8.3-1.2 1.1z"/><path id="XMLID_73_" class="st0" d="M672.2 231.4c-4.8-3.3-7.5-4.9-8.2-4.9-.4 0-.9.4-1.2 1.1l-6.1 12.5c-.3.6-.3 1 0 1.1 5.1 3.2 10 6.6 14.7 10.2.6.4 1.1.2 1.6-.7 4.2-6.8 6.4-11.4 6.4-13.5 0-.5-2.4-2.5-7.2-5.8z"/><path id="XMLID_74_" class="st0" d="M578.7 168c-.4 0-.9.4-1.2 1.1l-6.1 12.5c-.3.6-.3 1 0 1.1 5.1 3.2 10 6.6 14.7 10.2.6.4 1.1.2 1.6-.7 4.2-6.8 6.4-11.4 6.4-13.5 0-.6-2.4-2.5-7.2-5.8-4.8-3.3-7.6-4.9-8.2-4.9z"/><path id="XMLID_75_" class="st0" d="M321.9 231.4c-4.8-3.3-7.5-4.9-8.2-4.9-.4 0-.9.4-1.2 1.1l-6.1 12.5c-.3.6-.3 1 0 1.1 5.1 3.2 10 6.6 14.7 10.2.6.4 1.1.2 1.6-.7 4.2-6.8 6.4-11.4 6.4-13.5 0-.5-2.4-2.5-7.2-5.8z"/><path id="XMLID_76_" class="st0" d="M489.7 245.6c-4.8-3.3-7.5-4.9-8.2-4.9-.4 0-.9.4-1.2 1.1l-4.8 10c-1.3-1.3-3.9-3.3-8-6s-6.4-4.1-6.9-4.1c-.4 0-.9.4-1.2 1.1l-6.1 12.5c-.3.6-.3 1 0 1.1 5.1 3.2 10 6.6 14.7 10.2.6.4 1.1.2 1.6-.7 1.7-2.8 3.5-6.2 5.2-10.2 5.3 3.4 10 6.7 14.2 9.8.6.4 1.1.2 1.6-.7 4.2-6.8 6.4-11.3 6.4-13.5-.1-.5-2.5-2.4-7.3-5.7z"/><path id="XMLID_77_" class="st0" d="M248.8 169.4c-.4 0-.9.4-1.2 1.1l-4.8 10c-1.3-1.3-3.9-3.3-8-6s-6.4-4.1-6.9-4.1c-.4 0-.9.4-1.2 1.1l-6.1 12.5c-.3.6-.3 1 0 1.1 5.1 3.2 10 6.6 14.7 10.2.6.4 1.1.2 1.6-.7 1.7-2.8 3.5-6.2 5.2-10.2 5.3 3.4 10 6.7 14.2 9.8.6.4 1.1.2 1.6-.7 4.2-6.8 6.4-11.3 6.4-13.5 0-.6-2.4-2.5-7.2-5.8-5-3.1-7.7-4.8-8.3-4.8z"/><path id="XMLID_78_" class="st0" d="M1214 58.3c1.9-1.1 3.8-2.3 5.8-3.4 1.7-1 3.3-2 5-2.8l9.3-4.5c1.2-.6 2.4-1.3 3.6-1.9 1.3-.6 2.6-1.1 4-1.7 3.3-1.5 6.5-3.1 9.8-4.5 10.1-4.2 20.3-8.2 30.2-12.7 1-.5 1.7-1.1 2.1-2.1.6-1.8.9-3.6.8-5.4 0-.2-.2-.4-.3-.6-.3.1-.5.1-.7.2-7 3.5-14.4 6.1-21.6 9.1-5.5 2.3-11.1 4.1-16.4 6.7-1.7.8-3.5 1.6-5.3 2.3-.9.4-1.8.7-2.6 1.2-4.3 2.1-8.6 4.1-12.9 6.2-1.2.6-2.4 1.3-3.6 2-1.7 1-3.3 2-4.9 2.9-.6.4-1.2.7-1.9 1.1-.2 2.6-1.1 5.2-1 7.8.5.1.6.1.6.1z"/><path id="XMLID_79_" class="st0" d="M828 58.3c1.9-1.1 3.8-2.3 5.8-3.4 1.7-1 3.3-2 5-2.8l9.3-4.5c1.2-.6 2.4-1.3 3.6-1.9 1.3-.6 2.6-1.1 4-1.7 3.3-1.5 6.5-3.1 9.8-4.5 10.1-4.2 20.3-8.2 30.2-12.7 1-.5 1.7-1.1 2.1-2.1.6-1.8.9-3.6.8-5.4 0-.2-.2-.4-.3-.6-.3.1-.5.1-.7.2-7 3.5-14.4 6.1-21.6 9.1-5.5 2.3-11.1 4.1-16.4 6.7-1.7.8-3.5 1.6-5.3 2.3-.9.4-1.8.7-2.6 1.2-4.3 2.1-8.6 4.1-12.9 6.2-1.2.6-2.4 1.3-3.6 2-1.7 1-3.3 2-4.9 2.9-.6.4-1.2.7-1.9 1.1-.2 2.6-1.1 5.2-1 7.8.5.1.6.1.6.1z"/><path id="XMLID_80_" class="st0" d="M484.4 58.3c1.9-1.1 3.8-2.3 5.8-3.4 1.7-1 3.3-2 5-2.8l9.3-4.5c1.2-.6 2.4-1.3 3.6-1.9 1.3-.6 2.6-1.1 4-1.7 3.3-1.5 6.5-3.1 9.8-4.5 10.1-4.2 20.3-8.2 30.2-12.7 1-.5 1.7-1.1 2.1-2.1.6-1.8.9-3.6.8-5.4 0-.2-.2-.4-.3-.6-.3.1-.5.1-.7.2-7 3.5-14.4 6.1-21.6 9.1-5.5 2.3-11.1 4.1-16.4 6.7-1.7.8-3.5 1.6-5.3 2.3-.9.4-1.8.7-2.6 1.2-4.3 2.1-8.6 4.1-12.9 6.2-1.2.6-2.4 1.3-3.6 2-1.7 1-3.3 2-4.9 2.9-.6.4-1.2.7-1.9 1.1-.2 2.6-1.1 5.2-1 7.8.4.1.5.1.6.1z"/><path id="XMLID_83_" class="st0" d="M903.1 76c1.6.8 3.3 1.2 5.1.7 1.9-.5 3.9-.9 5.7-1.7 2.2-.9 4.2-2.3 5.2-4.7.1-.4.3-.9.5-1 1.2-.7 1.1-1.9 1.4-2.9.2-1 .2-2.1.4-3.1.7-3.6-.9-6.2-3.3-8.5-1.9-1.7-3.9-3.3-5.9-4.9-.9-.7-1.7-1.5-2.5-2.2-1.2-.9-1.6-2.1-1.3-3.6.2-1 .2-2.1.2-3.1 0-.5-.2-1.1-1-1.3-.2.7-.5 1.4-.7 2.2-.8 2.8-1.7 5.5-2.9 8.1-1.4 3-3 5.8-3.6 9.1-.6 2.9-1.3 5.8-1.6 8.7-.4 3.6.7 6.6 4.3 8.2zm-1.7-12.5c.6-1.7 1.2-3.5 1.8-5.2.5-1.4 1.2-2.8 1.8-4.2.1-.2.3-.4.5-.6.2.1.3.1.4.1 3.5 3 7 6 10.5 9.1.6.5 1.1 1.1 1.4 1.9-.6.9-1.5 1.5-2.5 1.9-2.5 1.2-5.1 1.9-7.8 2.1-2.1.1-4.1-.7-5.5-2.4-.7-.8-1-1.7-.6-2.7z"/><path id="XMLID_84_" class="st0" d="M1265.6 236.6c-.4.3-.7.5-1 .7-5.6 4.7-11.1 9.4-17.6 12.8-2.9 1.5-5.9 2.9-8.8 4.3-3 1.4-6.2 1.9-9.5 2.6-2.7.5-5.4.6-8.1.4-.9-.1-1.9-.2-2.8-.5-1.8-.6-2.4-1.6-1.9-3.5.1-.5.3-.9.6-1.3 1.9-2.6 3.6-5.3 5.6-7.8 1.2-1.6 2.7-2.9 4.2-4.3 2.3-2 2.9-4.7 3.1-7.5 0-.5-.1-1-.2-1.4 0-.2-.2-.4-.4-.6l-3.8 3.8c-.4.4-.9.8-1.3.9-2.5.5-5 1.1-7.6.5-1.4-.3-2.8-.6-4.2-1.1-1.2-.4-2.3-1.1-2.9-2.4 1.2-1.3 2.8-1.9 4.2-2.8 2-1.1 2.2-1 3.9.7.3.3.5.6.9.8.3.2.6.3 1.1.6.3-1.5.7-2.8 1-4.1.7-3.2.7-3.2-1.4-5.6-1.1-1.3-1.6-1.4-3.1-.6-1.3.7-2.7 1.4-3.9 2.3-1.5 1.2-2.9 2.5-4.3 3.8-.3.3-.5.6-.6 1-.8 2.4-1.5 4.9-2.2 7.3-.4 1.3-.2 2.5.9 3.5.7.6 1.2 1.3 1.8 1.9.8.8 1.8 1.4 2.8 1.7 1.6.5 3.2.8 4.9 1.2.4.1.8.3 1.3.5-.2.5-.4.9-.6 1.2-1.2 1.7-1.8 3.5-2.1 5.5-.3 2.1-.7 4.3-.9 6.4-.1 1.2.1 2.6.4 3.8.4 1.5 1.4 2.7 2.9 3.3 1 .4 2.1.7 3.2.8 3 .2 6.1.3 9-.6.7-.2 1.4-.3 2.1-.4.7-.2 1.4-.3 2.1-.5 2.6-1.1 5.1-2.2 7.7-3.3 3.5-1.4 6.4-3.7 9.7-5.3.3-.1.5-.3.8-.6 2.4-2 4.7-4.1 7.1-6.1 3.5-3 6.2-6.7 8.3-10.7.2-.3.4-.8-.4-1.3z"/><path id="XMLID_85_" class="st0" d="M830.7 77.5c1.4 1.2 2.5 2.7 3.8 4 2.8 2.8 5 5.9 7.3 9.1 2.3 3.1 3.9 6.6 5.6 10 .3.5.4 1 .6 1.6 1.6 4.6 2.4 9.3 2.9 14.1.4 4.2 1.2 8.4.1 12.6-.1.5 0 1.1.6 1.4.9-.2 1.2-.9 1.3-1.8.7-3 .8-6 .9-9 0-4.1-.6-8.1-1.1-12.2-.5-3.6-1.1-7.2-2.3-10.7-1.1-3.2-2.7-6.1-4.2-9.1-1.7-3.3-4-6.1-6.2-9.1-1.6-2.1-3.1-4.2-5-6.1-2-1.9-4-3.9-5.9-5.9-.2-.2-.5-.3-1-.5-.2 1.8-.4 3.3-.5 4.9-.1 3.4-.5 2.5 1.7 4.9.5.5.8 1.3 1.4 1.8z"/><path id="XMLID_86_" class="st0" d="M1105.9 29.3c1.8.6 3.5 1.6 5.5 1.7 1.3.1 2.3.6 3.2 1.4.8.6 1.5 1.5 2.6 1.8.3-.4.7-.8 1-1.3.3.3.5.4.7.7 1.3 1.6 2.7 3.2 4 4.7 1.4 1.6 2.5 3.3 3.5 5.1l4.2 7.5c.4.6.8 1.2 1.3 1.7.2.3.6.4.9.6 1.1-1 1.3-2.1 1.5-3.3.5-4.4.8-8.7.8-13.1.1-5 .1-10.1.2-15.1 0-.5 0-1 .1-1.4.2-.9.4-1.7.7-2.5.6-1.4 2.1-1.9 3.4-1.1 1.3.8 2.5 1.7 3.5 2.9 1 1.4 2 2.9 3 4.3.2.3.4.6 1 1.4.8-2.3 1.5-4.1 2.1-5.9.3-.9.1-1.7-.3-2.6-1.6-3.3-3.7-6.2-6.8-8.2-.4-.3-1-.5-1.5-.5-2-.2-3.3.9-4.2 2.5-.5.8-.7 1.8-1 2.7-1.4 4.4-1.6 9-1.7 13.5-.1 3.9.1 7.8.1 11.7 0 1.8-.1 3.5-.3 5.3 0 .3-.3.5-.5.9-.4-.7-.8-1.1-1-1.5-1.5-2.9-2.9-5.8-4.5-8.7-.7-1.3-1.6-2.6-2.5-3.8-1.7-2.1-3.4-4.2-5.2-6.3-1.3-1.6-2.7-3.2-4-4.8-1.4-1.7-3.1-3-5-4-1-.5-1.8-.4-2.7.2-1.3 1-2.4 2.1-2.5 3.9 0 .4-.2.8-.3 1.2-.3 2.1-.5 4.1-.7 6.2-.1 1.1.4 1.8 1.4 2.2z"/><path id="XMLID_87_" class="st0" d="M940.6 29.3c1.8.6 3.5 1.6 5.5 1.7 1.3.1 2.3.6 3.2 1.4.8.6 1.5 1.5 2.6 1.8.3-.4.7-.8 1-1.3.3.3.5.4.7.7 1.3 1.6 2.7 3.2 4 4.7 1.4 1.6 2.5 3.3 3.5 5.1l4.2 7.5c.4.6.8 1.2 1.3 1.7.2.3.6.4.9.6 1.1-1 1.3-2.1 1.5-3.3.5-4.4.8-8.7.8-13.1.1-5 .1-10.1.2-15.1 0-.5 0-1 .1-1.4.2-.9.4-1.7.7-2.5.6-1.4 2.1-1.9 3.4-1.1 1.3.8 2.5 1.7 3.5 2.9 1 1.4 2 2.9 3 4.3.2.3.4.6 1 1.4.8-2.3 1.5-4.1 2.1-5.9.3-.9.1-1.7-.3-2.6-1.6-3.3-3.7-6.2-6.8-8.2-.4-.3-1-.5-1.5-.5-2-.2-3.3.9-4.2 2.5-.5.8-.7 1.8-1 2.7-1.4 4.4-1.6 9-1.7 13.5-.1 3.9.1 7.8.1 11.7 0 1.8-.1 3.5-.3 5.3 0 .3-.3.5-.5.9-.4-.7-.8-1.1-1-1.5-1.5-2.9-2.9-5.8-4.5-8.7-.7-1.3-1.6-2.6-2.5-3.8-1.7-2.1-3.4-4.2-5.2-6.3-1.3-1.6-2.7-3.2-4-4.8-1.4-1.7-3.1-3-5-4-1-.5-1.8-.4-2.7.2-1.3 1-2.4 2.1-2.5 3.9 0 .4-.2.8-.3 1.2-.3 2.1-.5 4.1-.7 6.2-.2 1.1.3 1.8 1.4 2.2z"/><path id="XMLID_88_" class="st0" d="M626.4 29.3c1.8.6 3.5 1.6 5.5 1.7 1.3.1 2.3.6 3.2 1.4.8.6 1.5 1.5 2.6 1.8.3-.4.7-.8 1-1.3.3.3.5.4.7.7 1.3 1.6 2.7 3.2 4 4.7 1.4 1.6 2.5 3.3 3.5 5.1l4.2 7.5c.4.6.8 1.2 1.3 1.7.2.3.6.4.9.6 1.1-1 1.3-2.1 1.5-3.3.5-4.4.8-8.7.8-13.1.1-5 .1-10.1.2-15.1 0-.5 0-1 .1-1.4.2-.9.4-1.7.7-2.5.6-1.4 2.1-1.9 3.4-1.1 1.3.8 2.5 1.7 3.5 2.9 1 1.4 2 2.9 3 4.3.2.3.4.6 1 1.4.8-2.3 1.5-4.1 2.1-5.9.3-.9.1-1.7-.3-2.6-1.6-3.3-3.7-6.2-6.8-8.2-.4-.3-1-.5-1.5-.5-2-.2-3.3.9-4.2 2.5-.5.8-.7 1.8-1 2.7-1.4 4.4-1.6 9-1.7 13.5-.1 3.9.1 7.8.1 11.7 0 1.8-.1 3.5-.3 5.3 0 .3-.3.5-.5.9-.4-.7-.8-1.1-1-1.5-1.5-2.9-2.9-5.8-4.5-8.7-.7-1.3-1.6-2.6-2.5-3.8-1.7-2.1-3.4-4.2-5.2-6.3-1.3-1.6-2.7-3.2-4-4.8-1.4-1.7-3.1-3-5-4-1-.5-1.8-.4-2.7.2-1.3 1-2.4 2.1-2.5 3.9 0 .4-.2.8-.3 1.2-.3 2.1-.5 4.1-.7 6.2-.1 1.1.3 1.8 1.4 2.2z"/><path id="XMLID_89_" class="st0" d="M1021.4 245.3c-1.2 3.2-3.9 4.7-6.8 6-.8.3-1.4.1-1.9-.5s-.9-1.3-1.2-2.1c-.3-.7-.4-1.5-.7-2.3-.9-2.7-.6-5.3.6-7.9 1.3-3 2.3-6.1 3.4-9.2.2-.6.3-1.2.4-1.9 0-.3 0-.7-.6-.6-.6 1.2-1.3 2.4-1.8 3.7-1.2 3-2.4 6.1-3.6 9.1-.8 2.3-1.8 4.7-2 7.1-.4 4.2.9 8 3.1 11.6.8 1.3 1.9 1.5 3.3.7 2.6-1.4 4.8-3.2 6.1-5.9.6-1.2 1.2-2.5 1.5-3.8.4-1.5 1.1-3 .8-5.1-.3.7-.5.9-.6 1.1z"/><path id="XMLID_90_" class="st0" d="M282 246.3c-1.2 3.2-3.9 4.7-6.8 6-.8.3-1.4.1-1.9-.5s-.9-1.3-1.2-2.1c-.3-.7-.4-1.5-.7-2.3-.9-2.7-.6-5.3.6-7.9 1.3-3 2.3-6.1 3.4-9.2.2-.6.3-1.2.4-1.9 0-.3 0-.7-.6-.6-.6 1.2-1.3 2.4-1.8 3.7-1.2 3-2.4 6.1-3.6 9.1-.8 2.3-1.8 4.7-2 7.1-.4 4.2.9 8 3.1 11.6.8 1.3 1.9 1.5 3.3.7 2.6-1.4 4.8-3.2 6.1-5.9.6-1.2 1.2-2.5 1.5-3.8.4-1.5 1.1-3 .8-5.1-.4.7-.6.9-.6 1.1z"/><path id="XMLID_91_" class="st0" d="M111.9 86.3c2.4-.5 4.9-1 7.3-1.4 1.5-.3 3-.3 4.5-.6 3.6-.8 7.2-1.6 10.7-2.7 4.9-1.5 9.7-3.3 14-6.1 1.7-1.1 3.6-2.1 5.4-3.2 2.4-1.5 5.1-2.7 7.2-4.7.3-.3.8-.5 1.2-.8 1.8-1.2 3.6-2.3 5.4-3.5 1.5-1 3-2.1 4.6-3 4.1-2.3 8.3-4.4 12.9-5.6 1.1-.3 2.2-.6 3.3-.4 3.2.3 6.3 1 9.2 2.5 1.2.6 2.4 1.3 3.6 1.8 2.4 1.1 4.7 1.1 7-.3 2.6-1.7 4.8-3.6 6-6.6.1-.3.4-.6.6-1 .4.3.8.5 1.1.7 1.5 1.2 3.3 1.9 5 2.7 2.2 1.1 4.1.9 5.9-.9.7-.7 1.3-1.4 1.5-2.3.7-2.8 1.5-5.5 1.8-8.4.3-2.4.2-4.8-.8-7-.2-.5-.3-1.1-.5-1.6-.1-.3-.3-.6-.7-1.1-.5 2.1-1 3.8-1.4 5.6-.4 1.5-.3 2.8.3 4.2.3.7.5 1.3.8 2.1-.3 1-.7 1.7-1.5 1.9-.8.2-1.8.2-2.6 0-2.3-.7-4.5-1.8-6.3-3.3-.5-.5-.7-1-.6-1.7.3-1.7.2-1.7-.2-3.3-.2.4-.4.6-.5.8-.5 1.6-1 3.2-1.4 4.8-.4 1.6-1.1 2.8-2.2 3.9-1.1 1-2.3 1.9-3.6 2.7-1.5.9-3.1 1.3-4.8.7-.9-.3-1.8-.5-2.7-1-3.1-1.7-6.3-3.1-9.8-3.5-.3 0-.6-.2-.9-.2-1 0-2-.2-2.9 0-2.1.5-4.2 1.1-6.2 1.9-5.5 2.1-10.4 5.2-15.1 8.7-3.4 2.5-6.8 5.1-10.2 7.5-3.1 2.2-6.4 4.2-9.6 6.4-4.5 3-9.3 5.4-14.3 7.3-4.8 1.9-9.7 3.7-14.6 5.4-2.5.9-5 1.6-7.6 2.3-.3.1-.7.2-1 .3 1 .3 1.9.2 2.7 0z"/><path id="XMLID_92_" class="st0" d="M706.2 43.9h1.1c1.7.2 3.4.2 5 .7 3.8 1.1 7 3.2 9.3 6.5 2.9 4.2 5.9 8.3 8.8 12.5 1.8 2.7 3.4 5.6 5.1 8.4-.8 1.7-1.7 3.2-2.2 4.8-.5 1.6-.7 3.3-.9 5-.6 3.8-.6 3.8-.1 4.8.1-.1.4-.2.4-.3.3-.6.6-1.2.8-1.8.6-1.4 1.3-2.7 2.3-3.9.9-.9 1.9-1.2 3.1-.8 2.3.8 4 2.3 5.4 4.5-1 .3-1.8.6-2.6.8-3 .9-5.9 1.9-8.6 3.5-1.1.7-2.2 1.5-3.1 2.4-.8.7-1.2 1.7-1.3 2.8-.1 1.9-.3 3.8-.4 5.7 0 .6 0 1.4.3 1.9.4.8.4 1.6.5 2.4.1.8.3 1.7.5 2.5.6 2.3 1.9 4.3 3.1 6.3.9 1.4 1.7 2.9 2.6 4.4 1 1.8 1.9 3.7 3.2 5.4 1.8 2.5 3.3 5.1 4.6 7.8 1.5 3.2 3.2 6.5 3.5 10.1.2 2.4.4 4.7.6 7.1.1 1.1.2 2.3.3 3.4 0 .1.2.2.5.5.2-.3.5-.5.6-.8.3-1.5.8-3 .8-4.4.2-5.1-.2-10.2-1.4-15.2s-3.3-9.6-6-14c-1.3-2.1-2.6-4.1-3.8-6.3-1.4-2.8-3-5.4-4.8-8-.3-.4-.5-.8-.7-1.2-.7-1.5-.3-2.5 1.1-3.3.2-.1.5-.3.7-.4 5-2.2 10-3.9 15.5-3.9.9 0 1.9-.1 2.7-.2.2-.3.4-.5.4-.6.2-.4.3-.9.5-1.3 1.1-3.4 1-6.7-1.2-9.7-.6-.8-1-1.6-1.6-2.4-1.7-2.5-3.7-4.8-6-6.8-2.2-1.9-4.5-3.5-7.9-2.3-.1-1-.2-1.8-.1-2.7.1-2.4.3-4.7.4-7.1.1-3.3.2-6.6.2-9.9 0-3.7-.2-7.4-.3-11 0-2.3.5-4.5 1.3-6.6.5-1.3 1.5-1.9 2.8-1.9 1 0 1.9.2 2.7.7 1.1.7 2.2 1.6 2.8 2.8 1.1 2 2.1 4 3.1 6 .2.4.2 1 1 .9.1-.3.4-.6.5-.9.3-1 .5-2 1-2.9.9-1.8 1-3.7.5-5.5-1-3.5-2.7-6.6-5.5-9.1-.7-.6-1.6-1.1-2.4-1.4-2.3-.8-4.6.1-5.7 2.4-.8 1.7-1.6 3.5-2 5.3-1.6 6.4-2.2 12.8-1.9 19.4l.3 9.6c0 .5-.2 1-.4 1.7-2.6-4-5-7.7-7.4-11.4-3.3-5.1-6.9-9.9-11.5-13.9-2.2-1.9-4.5-3.7-6.4-5.9-.9-1-2-1.7-3.5-2.2-1.1 1.7-2 3.3-2.2 5.1-.3 2.5-.5 5.1-.6 7.6-.1.7 0 1.5.1 2.3.3 1.1 1.1 1.8 2.5 2z"/><path id="XMLID_93_" class="st0" d="M1151.6 103.4c3.1-.2 6.2-.5 9.3-.7 7.1-.3 14.2 0 21.2 1.5.9.2 1.7.5 2.9.9-4.3 3.4-8.7 5.6-13.3 7.6-4 1.7-8 3.5-12 5.3-1.2.6-2.3 1.5-2.5 3.2.6.1 1 .2 1.5.2 6.3-1.3 12.6-2.5 18.9-4 1.3-.3 2.6-1 3.7-1.8 7.4-5.3 13.8-11.7 18.9-19.2.9-1.3 1.1-2.6.1-3.8-1-1.2-2.3-2.4-3.7-3.2-1.3-.7-3-.9-4.5-1.3-5.9-1.3-12-1.6-18-1.6-3.6 0-7.2.2-10.8.3-1.8.1-3.3.5-4.4 2.3-1.6 2.6-3.4 5-5.1 7.4-1.1 1.6-2.5 3-3.6 4.6-.3.5-.5 1.4-.3 1.8.2.4 1.1.5 1.7.5z"/><path id="XMLID_94_" class="st0" d="M587.9 91.5c-1.6 2.6-3.4 5-5.1 7.4-1.1 1.6-2.5 3-3.6 4.6-.3.5-.5 1.4-.3 1.8.2.4 1.1.5 1.7.5 3.1-.2 6.2-.5 9.3-.7 7.1-.3 14.2 0 21.2 1.5.9.2 1.7.5 2.9.9-4.3 3.4-8.7 5.6-13.3 7.6-4 1.7-8 3.5-12 5.3-1.2.6-2.3 1.5-2.5 3.2.6.1 1 .2 1.5.2 6.3-1.3 12.6-2.5 18.9-4 1.3-.3 2.6-1 3.7-1.8 7.4-5.3 13.8-11.7 18.9-19.2.9-1.3 1.1-2.6.1-3.8-1-1.2-2.3-2.4-3.7-3.2-1.3-.7-3-.9-4.5-1.3-5.9-1.3-12-1.6-18-1.6-3.6 0-7.2.2-10.8.3-1.8.1-3.3.6-4.4 2.3z"/><path id="XMLID_97_" class="st0" d="M877.2 206.4c-.4-2.1-1.2-4.1-2.8-5.7-2.1-2.3-3.3-2.6-6-1.1-2.7 1.6-5.3 3.4-6.2 6.6-.1.4-.3.7-.5 1.2-.8-.4-1.5-.8-2.5-1.4-.5.9-1 1.6-1.2 2.4-.4 1.5-.6 3.2-1.1 4.6-.7 2-1.4 4.1-2.6 5.8-4 5.7-9.2 10.4-14.6 14.7-8.3 6.6-16.6 13.3-24.9 19.9-4.4 3.5-8.9 7-13.4 10.5-.5.4-1 .9-1.5 1.4.9 1 1.6.7 2.3.3l4.2-2.4c.9-.5 1.8-1.3 2.7-1.5 2.7-.5 4.9-1.9 7.1-3.3 2.7-1.7 5.7-2.8 8.1-4.9 5-4.2 10.1-8.2 15.2-12.4 4.3-3.5 8.4-7.1 11.9-11.4 2.9-3.5 5.5-7.2 6.2-11.9.1-.8.6-1.5 1-2.5 3.9 2.4 7.5 4.7 11.1 6.8 1 .6 2.2 1 3.3 1.3 1.6.3 2.3-.2 3-1.7 1.4-3 2.3-6.1 1.9-9.5-.2-1.8-.3-3.8-.7-5.8zm-13.3 2.6c1-1.5 2.4-2.2 3.9-2.5.5-.1 1.3.1 1.8.4 2.3 1.9 3.5 4.4 3.7 7.6-3.3-1.9-6.3-3.6-9.4-5.5z"/><path id="XMLID_98_" class="st0" d="M980 83.8c-1.1-1.6-2-3.4-1.7-5.5.1-.8.1-1.6.2-2.4.4-3.4-.2-6.7-1.3-9.9-.1-.2-.4-.3-.7-.6-.1.7-.2 1.2-.3 1.6-.3 1.6-.7 3.3-1.1 4.9-.1.5-.1 1.1.1 1.6 1 2.9 1.1 5.9.8 9-.3 3.4.5 6.5 2.6 9.2.7.9 1.4 1.5 2.5 1.8 2.5.8 5.4 0 6.9-2.2 1.2-1.7 2.3-3.4 2.9-5.5.3-1.2.7-2.3 1.1-3.4.1-.4.3-.7.9-.7.5.6.5 1.4.8 2.2.7 2.1 2.1 3.8 3.9 5 1.4.9 3 1.4 4.6 2 .6.2 1.2.3 1.9.3.9.1 1.6-.2 2.1-.9.7-.9 1.4-1.8 1.8-2.8.7-1.3 1.3-2.8 1.8-4.2.4-1.1.5-2.3.4-3.5-.4-3.2-1.6-6-3.6-8.5-1.3-1.6-2.3-3.4-3-5.4-.4-1.1-.8-2.3-1.2-3.4-.4-1-.9-1.9-1.4-2.8-.2-.3-.5-.5-1-1-1.2 5.1-.5 7.9.8 11.4 1.2 3.3 3 6.3 5.2 9.1.5.7.8 1.5 1.1 2.4.2.7-.3 1.3-1 1.4-.6 0-1.3 0-1.9-.1-4.1-1.2-7.5-3.3-9-7.5-.2-.5-.4-.9-.6-1.3-1.5-3.6-2.8-7.3-3.8-11.1-.2-.6-.2-1.3-.9-1.6-.1.2-.3.4-.4.6-.1.9-.3 1.7-.3 2.6-.3 2.7-.5 5.4.2 8.1.4 1.5.5 3.2.8 4.7.3 1.4 0 2.7-.8 3.9-.4.7-.9 1.3-1.3 2-.8 1.2-2 1.8-3.4 2.1-1.9.4-3.6 0-4.7-1.6z"/><path id="XMLID_99_" class="st0" d="M786.2 55c.9 1.5 2.2 2.4 3.6 3.2 1.6.8 3.2.7 4.5-.6 1.2-1.3 2.3-2.6 3.3-4 3.5-4.7 4.3-10.4 5.2-16 .1-.4 0-.9-.1-1.3-.1-.3-.4-.4-.8-.8-.4 4-2.4 7.1-4.9 9.9-2.5 2.7-5.1 2.8-7.5.2-.4-.5-.7-1.1-1.1-1.6-1.2-2.2-2.1-4.5-3-6.8-.9-2.4-.9-4.7-.4-7 .3-1.3.7-2.5 1-3.8 1.6-6.3 3.1-12.7 4.6-19 .3-1.2.2-2.6.3-3.9 0-.2-.3-.5-.4-.7-.2.1-.4.1-.4.1-1.1 3.2-2.4 6.3-3.1 9.6-.7 3.5-1.6 7-2.6 10.4-1.3 4.9-2.5 9.9-3.2 15-.3 2.6-.1 5.3.7 7.7 1.1 3.2 2.5 6.4 4.3 9.4z"/><path id="XMLID_100_" class="st0" d="M576.9 57c.9 1.5 2.2 2.4 3.6 3.2 1.6.8 3.2.7 4.5-.6 1.2-1.3 2.3-2.6 3.3-4 3.5-4.7 4.3-10.4 5.2-16 .1-.4 0-.9-.1-1.3-.1-.3-.4-.4-.8-.8-.4 4-2.4 7.1-4.9 9.9-2.5 2.7-5.1 2.8-7.5.2-.4-.5-.7-1.1-1.1-1.6-1.2-2.2-2.1-4.5-3-6.8-.9-2.4-.9-4.7-.4-7 .3-1.3.7-2.5 1-3.8 1.6-6.3 3.1-12.7 4.6-19 .3-1.2.2-2.6.3-3.9 0-.2-.3-.5-.4-.7-.2.1-.4.1-.4.1-1.1 3.2-2.4 6.3-3.1 9.6-.7 3.5-1.6 7-2.6 10.4-1.3 4.9-2.5 9.9-3.2 15-.3 2.6-.1 5.3.7 7.7 1.1 3.2 2.5 6.4 4.3 9.4z"/><path id="XMLID_101_" class="st0" d="M280.9 57c.9 1.5 2.2 2.4 3.6 3.2 1.6.8 3.2.7 4.5-.6 1.2-1.3 2.3-2.6 3.3-4 3.5-4.7 4.3-10.4 5.2-16 .1-.4 0-.9-.1-1.3-.1-.3-.4-.4-.8-.8-.4 4-2.4 7.1-4.9 9.9-2.5 2.7-5.1 2.8-7.5.2-.4-.5-.7-1.1-1.1-1.6-1.2-2.2-2.1-4.5-3-6.8-.9-2.4-.9-4.7-.4-7 .3-1.3.7-2.5 1-3.8 1.6-6.3 3.1-12.7 4.6-19 .3-1.2.2-2.6.3-3.9 0-.2-.3-.5-.4-.7-.2.1-.4.1-.4.1-1.1 3.2-2.4 6.3-3.1 9.6-.7 3.5-1.6 7-2.6 10.4-1.3 4.9-2.5 9.9-3.2 15-.3 2.6-.1 5.3.7 7.7 1.1 3.2 2.5 6.4 4.3 9.4z"/><path id="XMLID_102_" class="st0" d="M797.3 119.9c-2.1-3.1-2.7-6.2-1-9.9 1.8-3.9 3-8 4.5-12.1.5-1.3.5-2.6 0-3.9-.2 0-.4-.1-.6-.1-.6 1.3-1.4 2.5-1.9 3.8-1 2.6-1.8 5.3-2.8 7.9-1.4 3.8-3.1 7.5-3.7 11.6-.6 4.3 1 7.8 3.3 11.1 1.1 1.6 3.1 1.7 4.7.6 4.8-3.3 7.3-8.1 8.3-13.7.2-.9.3-1.8-.7-2.7-.5 1.3-1 2.4-1.4 3.4-.9 2-2.3 3.6-4.2 4.8-1.7 1.2-3.4.9-4.5-.8z"/><path id="XMLID_103_" class="st0" d="M1124.4 245.3c-1.2 3.2-3.9 4.7-6.8 6-.8.3-1.4.1-1.9-.5s-.9-1.3-1.2-2.1c-.3-.7-.4-1.5-.7-2.3-.9-2.7-.6-5.3.6-7.9 1.3-3 2.3-6.1 3.4-9.2.2-.6.3-1.2.4-1.9 0-.3 0-.7-.6-.6-.6 1.2-1.3 2.4-1.8 3.7-1.2 3-2.4 6.1-3.6 9.1-.8 2.3-1.8 4.7-2 7.1-.4 4.2.9 8 3.1 11.6.8 1.3 1.9 1.5 3.3.7 2.6-1.4 4.8-3.2 6.1-5.9.6-1.2 1.2-2.5 1.5-3.8.4-1.5 1.1-3 .8-5.1-.3.7-.5.9-.6 1.1z"/><path id="XMLID_104_" class="st0" d="M1177.2 55c.9 1.5 2.2 2.4 3.6 3.2 1.6.8 3.2.7 4.5-.6 1.2-1.3 2.3-2.6 3.3-4 3.5-4.7 4.3-10.4 5.2-16 .1-.4 0-.9-.1-1.3-.1-.3-.4-.4-.8-.8-.4 4-2.4 7.1-4.9 9.9-2.5 2.7-5.1 2.8-7.5.2-.4-.5-.7-1.1-1.1-1.6-1.2-2.2-2.1-4.5-3-6.8-.9-2.4-.9-4.7-.4-7 .3-1.3.7-2.5 1-3.8 1.6-6.3 3.1-12.7 4.6-19 .3-1.2.2-2.6.3-3.9 0-.2-.3-.5-.4-.7-.2.1-.4.1-.4.1-1.1 3.2-2.4 6.3-3.1 9.6-.7 3.5-1.6 7-2.6 10.4-1.3 4.9-2.5 9.9-3.2 15-.3 2.6-.1 5.3.7 7.7 1.1 3.2 2.5 6.4 4.3 9.4z"/><path id="XMLID_105_" class="st0" d="M386.2 43.9h1.1c1.7.2 3.4.2 5 .7 3.8 1.1 7 3.2 9.3 6.5 2.9 4.2 5.9 8.3 8.8 12.5 1.8 2.7 3.4 5.6 5.1 8.4-.8 1.7-1.7 3.2-2.2 4.8-.5 1.6-.7 3.3-.9 5-.6 3.8-.6 3.8-.1 4.8.1-.1.4-.2.4-.3.3-.6.6-1.2.8-1.8.6-1.4 1.3-2.7 2.3-3.9.9-.9 1.9-1.2 3.1-.8 2.3.8 4 2.3 5.4 4.5-1 .3-1.8.6-2.6.8-3 .9-5.9 1.9-8.6 3.5-1.1.7-2.2 1.5-3.1 2.4-.8.7-1.2 1.7-1.3 2.8-.1 1.9-.3 3.8-.4 5.7 0 .6 0 1.4.3 1.9.4.8.4 1.6.5 2.4.1.8.3 1.7.5 2.5.6 2.3 1.9 4.3 3.1 6.3.9 1.4 1.7 2.9 2.6 4.4 1 1.8 1.9 3.7 3.2 5.4 1.8 2.5 3.3 5.1 4.6 7.8 1.5 3.2 3.2 6.5 3.5 10.1.2 2.4.4 4.7.6 7.1.1 1.1.2 2.3.3 3.4 0 .1.2.2.5.5.2-.3.5-.5.6-.8.3-1.5.8-3 .8-4.4.2-5.1-.2-10.2-1.4-15.2s-3.3-9.6-6-14c-1.3-2.1-2.6-4.1-3.8-6.3-1.4-2.8-3-5.4-4.8-8-.3-.4-.5-.8-.7-1.2-.7-1.5-.3-2.5 1.1-3.3.2-.1.5-.3.7-.4 5-2.2 10-3.9 15.5-3.9.9 0 1.9-.1 2.7-.2.2-.3.4-.5.4-.6.2-.4.3-.9.5-1.3 1.1-3.4 1-6.7-1.2-9.7-.6-.8-1-1.6-1.6-2.4-1.7-2.5-3.7-4.8-6-6.8-2.2-1.9-4.5-3.5-7.9-2.3-.1-1-.2-1.8-.1-2.7.1-2.4.3-4.7.4-7.1.1-3.3.2-6.6.2-9.9 0-3.7-.2-7.4-.3-11 0-2.3.5-4.5 1.3-6.6.5-1.3 1.5-1.9 2.8-1.9 1 0 1.9.2 2.7.7 1.1.7 2.2 1.6 2.8 2.8 1.1 2 2.1 4 3.1 6 .2.4.2 1 1 .9.1-.3.4-.6.5-.9.3-1 .5-2 1-2.9.9-1.8 1-3.7.5-5.5-1-3.5-2.7-6.6-5.5-9.1-.7-.6-1.6-1.1-2.4-1.4-2.3-.8-4.6.1-5.7 2.4-.8 1.7-1.6 3.5-2 5.3-1.6 6.4-2.2 12.8-1.9 19.4l.3 9.6c0 .5-.2 1-.4 1.7-2.6-4-5-7.7-7.4-11.4-3.3-5.1-6.9-9.9-11.5-13.9-2.2-1.9-4.5-3.7-6.4-5.9-.9-1-2-1.7-3.5-2.2-1.1 1.7-2 3.3-2.2 5.1-.3 2.5-.5 5.1-.6 7.6-.1.7 0 1.5.1 2.3.3 1.1 1.1 1.8 2.5 2z"/><path id="XMLID_106_" class="st0" d="M36.2 43.9h1.1c1.7.2 3.4.2 5 .7 3.8 1.1 7 3.2 9.3 6.5 2.9 4.2 5.9 8.3 8.8 12.5 1.8 2.7 3.4 5.6 5.1 8.4-.8 1.7-1.7 3.2-2.2 4.8-.5 1.6-.7 3.3-.9 5-.6 3.8-.6 3.8-.1 4.8.1-.1.4-.2.4-.3.3-.6.6-1.2.8-1.8.6-1.4 1.3-2.7 2.3-3.9.9-.9 1.9-1.2 3.1-.8 2.3.8 4 2.3 5.4 4.5-1 .3-1.8.6-2.6.8-3 .9-5.9 1.9-8.6 3.5-1.1.7-2.2 1.5-3.1 2.4-.8.7-1.2 1.7-1.3 2.8-.1 1.9-.3 3.8-.4 5.7 0 .6 0 1.4.3 1.9.4.8.4 1.6.5 2.4.1.8.3 1.7.5 2.5.6 2.3 1.9 4.3 3.1 6.3.9 1.4 1.7 2.9 2.6 4.4 1 1.8 1.9 3.7 3.2 5.4 1.8 2.5 3.3 5.1 4.6 7.8 1.5 3.2 3.2 6.5 3.5 10.1.2 2.4.4 4.7.6 7.1.1 1.1.2 2.3.3 3.4 0 .1.2.2.5.5.2-.3.5-.5.6-.8.3-1.5.8-3 .8-4.4.2-5.1-.2-10.2-1.4-15.2s-3.3-9.6-6-14c-1.3-2.1-2.6-4.1-3.8-6.3-1.4-2.8-3-5.4-4.8-8-.3-.4-.5-.8-.7-1.2-.7-1.5-.3-2.5 1.1-3.3.2-.1.5-.3.7-.4 5-2.2 10-3.9 15.5-3.9.9 0 1.9-.1 2.7-.2.2-.3.4-.5.4-.6.2-.4.3-.9.5-1.3 1.1-3.4 1-6.7-1.2-9.7-.6-.8-1-1.6-1.6-2.4-1.7-2.5-3.7-4.8-6-6.8-2.2-1.9-4.5-3.5-7.9-2.3-.1-1-.2-1.8-.1-2.7.1-2.4.3-4.7.4-7.1.1-3.3.2-6.6.2-9.9 0-3.7-.2-7.4-.3-11 0-2.3.5-4.5 1.3-6.6.5-1.3 1.5-1.9 2.8-1.9 1 0 1.9.2 2.7.7 1.1.7 2.2 1.6 2.8 2.8 1.1 2 2.1 4 3.1 6 .2.4.2 1 1 .9.1-.3.4-.6.5-.9.3-1 .5-2 1-2.9.9-1.8 1-3.7.5-5.5-1-3.5-2.7-6.6-5.5-9.1-.7-.6-1.6-1.1-2.4-1.4-2.3-.8-4.6.1-5.7 2.4-.8 1.7-1.6 3.5-2 5.3C65.6 36 65 42.4 65.3 49l.3 9.6c0 .5-.2 1-.4 1.7-2.6-4-5-7.7-7.4-11.4-3.3-5.1-6.9-9.9-11.5-13.9-2.2-1.9-4.5-3.7-6.4-5.9-.9-1-2-1.7-3.5-2.2-1.1 1.7-2 3.3-2.2 5.1-.3 2.5-.5 5.1-.6 7.6-.1.7 0 1.5.1 2.3.3 1.1 1.1 1.8 2.5 2z"/><path id="XMLID_107_" class="st0" d="M665.2 94.5c-2.1-3.1-2.7-6.2-1-9.9 1.8-3.9 3-8 4.5-12.1.5-1.3.5-2.6 0-3.9-.2 0-.4-.1-.6-.1-.6 1.3-1.4 2.5-1.9 3.8-1 2.6-1.8 5.3-2.8 7.9-1.4 3.8-3.1 7.5-3.7 11.6-.6 4.3 1 7.8 3.3 11.1 1.1 1.6 3.1 1.7 4.7.6 4.8-3.3 7.3-8.1 8.3-13.7.2-.9.3-1.8-.7-2.7-.5 1.3-1 2.4-1.4 3.4-.9 2-2.3 3.6-4.2 4.8-1.7 1.2-3.3.9-4.5-.8z"/></g></svg>